<?xml version="1.0" encoding="UTF-8" standalone="no"?>
<!-- Created using Krita: https://krita.org -->

<svg
   width="7238.3999pt"
   height="1178.88pt"
   viewBox="0 0 7238.4 1178.88"
   version="1.1"
   id="svg1"
   xml:space="preserve"
   xmlns="http://www.w3.org/2000/svg"
   xmlns:svg="http://www.w3.org/2000/svg"><defs
     id="defs1" /><g
     id="layer2"
     style="display:inline"
     transform="translate(1375.3143,314.51581)"><path
       id="path397-6"
       fill="#2a186e"
       stroke-opacity="0"
       stroke="#000000"
       stroke-width="0"
       stroke-linecap="square"
       stroke-linejoin="bevel"
       d="m 673.4187,274.76931 c -146.74725,-5.97825 -224.4255,-21.0795 -282.61463,-54.94275 -32.33208,-18.81525 -38.38271,-29.466 -38.36583,-67.53 0.0157,-35.06775 3.13335,-42.26475 30.09686,-69.47475 55.19535,-55.70025 162.91635,-106.5792 270.7071,-127.859625 133.03125,-26.263523 185.274,-31.202225 330.16575,-31.211614 108.84905,-0.0067 155.48775,3.236771 199.93275,13.905514 85.125,20.433075 115.56,36.27975 115.56,60.165525 0,13.44345 -3.6975,16.46295 -35.1375,28.71795 -22.335,8.70375 -30.6975,9.927 -69.4125,10.16025 -49.035,0.2955 -51.405,-0.46875 -90.285,-29.088 -37.3425,-27.491775 -72.2572,-34.6581 -169.41,-34.7727 -126.156,-0.148875 -215.19675,17.577375 -296.08725,58.94445 -42.36075,21.663 -67.53975,43.11525 -89.65725,76.3845 -23.71275,35.66925 -23.23725,46.80825 3.087,72.30525 16.5915,16.07025 24.672,20.72775 49.6515,28.6185 41.058,12.9705 65.031,15.02175 170.81925,14.61525 79.11075,-0.30375 101.02575,-1.70925 159.4935,-10.227 37.27875,-5.43075 71.42775,-10.79025 75.88575,-11.90925 11.5433,-2.8965 49.746,-43.92825 48.2363,-51.807 -1.119,-5.83575 -9.9586,-6.63375 -98.37905,-8.88075 -104.1255,-2.64675 -123.77325,-4.36275 -133.7895,-11.6865 -5.9115,-4.323 -5.5275,-5.4225 4.986,-14.26875 23.06775,-19.41 47.20275,-21.58425 226.12125,-20.3655 159.6825,1.08825 161.4975,1.18425 176.925,9.4275 14.055,7.50825 20.5125,15.51675 12.51,15.51675 -1.6875,0 -4.785,3.71475 -6.8625,8.2545 -2.085,4.53975 -9.3675,15.32925 -16.185,23.976 -44.0175,55.84875 -48.555,60.489 -67.71,69.2595 -45.8475,20.98875 -211.9185,45.67725 -352.3545,52.38075 -44.6475,2.1315 -85.91775,3.552 -91.71225,3.15675 -5.7945,-0.39525 -22.09125,-1.1895 -36.21525,-1.76475 z" /><path
       id="path398-2"
       fill="#2a186e"
       stroke-opacity="0"
       stroke="#000000"
       stroke-width="0"
       stroke-linecap="square"
       stroke-linejoin="bevel"
       d="m 1434.4556,273.45517 c -61.9285,-5.3685 -107.7845,-19.45275 -123.6334,-37.9725 -4.5397,-5.30475 -8.2541,-11.031 -8.2541,-12.7245 0,-10.7475 49.3493,-45.34425 79.9717,-56.0655 52.6111,-18.4185 93.3211,-23.81775 314.3933,-41.69625 119.874,-9.6945 158.289,-14.52525 165.9315,-20.868 7.1108,-5.90175 5.5493,-20.1864 -3.0862,-28.231575 -13.1468,-12.248475 -40.377,-16.117125 -111.1508,-15.79155 -79.779,0.366975 -111.2273,5.3661 -176.424,28.0449 -43.6395,15.180225 -50.682,16.593225 -82.911,16.635975 -39.462,0.0525 -59.3392,-4.827 -57.5482,-14.12625 1.6597,-8.61975 36.1777,-28.1367 68.5725,-38.77215 34.1595,-11.214825 91.0057,-22.209675 147.0907,-28.44927 56.1105,-6.2424 235.5398,-5.935193 286.026,0.489727 65.892,8.385518 106.5045,26.855318 106.5045,48.436643 0,5.751225 -1.6507,10.4568 -3.6682,10.4568 -2.0175,0 -3.6683,2.346375 -3.6683,5.214075 0,5.461875 -63.2197,91.641675 -74.2177,101.172675 -4.845,4.1985 -6.5843,12.45525 -7.3373,34.83375 l -0.987,29.33175 -23.8448,8.9685 c -20.2597,7.62 -30.4657,9.0015 -67.8674,9.18825 l -44.0228,0.219 -22.6282,-13.7565 c -12.4455,-7.56675 -26.4773,-13.75575 -31.182,-13.755 -4.7048,0.001 -35.0326,4.86225 -67.395,10.80225 -93.231,17.112 -192.3158,24.16575 -258.6638,18.41475 z m 249.5092,-45.3825 c 57.3158,-10.6725 98.7248,-28.60275 125.0445,-54.14475 17.5553,-17.037 18.7403,-25.07325 3.6968,-25.07325 -28.1482,0 -236.385,19.32525 -260.6798,24.192 -30.4147,6.093 -65.3834,21.7305 -71.3497,31.90725 -4.9042,8.364 7.1835,18.6045 30.9968,26.2605 21.687,6.97275 128.427,5.0265 172.2914,-3.14175 z" /><path
       id="path399-9"
       fill="#2a186e"
       stroke-opacity="0"
       stroke="#000000"
       stroke-width="0"
       stroke-linecap="square"
       stroke-linejoin="bevel"
       d="m 2127.9826,268.63208 c -17.0703,-6.41775 -19.3287,-21.7305 -5.5204,-37.42875 5.2308,-5.94675 18.0354,-22.36875 28.4545,-36.492 10.4193,-14.124 20.317,-27.33075 21.9949,-29.34825 1.6779,-2.0175 14.6752,-20.1765 28.8829,-40.35375 14.2073,-20.1765 27.8497,-38.3355 30.3165,-40.35375 2.4668,-2.0175 10.9433,-13.5735 18.8363,-25.67925 7.8929,-12.10575 15.3329,-22.83675 16.533,-23.8455 1.2007,-1.00875 10.281,-13.38975 20.1787,-27.51375 9.8977,-14.12355 18.9652,-26.504775 20.1495,-27.5136 1.1842,-1.0089 6.618,-7.784175 12.075,-15.05625 13.2097,-17.604075 49.1287,-35.473343 81.4507,-40.521705 31.1198,-4.860465 70.4491,-2.072364 86.2853,6.116805 10.3073,5.330025 11.415,7.360875 9.4305,17.2857 -1.2375,6.1854 -9.3172,19.669575 -17.955,29.9649 -8.6385,10.295325 -18.8085,23.67165 -22.6005,29.72415 -3.792,6.05325 -9.8858,14.307 -13.5412,18.34275 -3.6563,4.035 -19.2136,24.6705 -34.5728,45.8565 -15.3585,21.18525 -31.8127,43.4715 -36.5648,49.52475 -4.752,6.05325 -21.156,28.3395 -36.4522,49.52475 -52.491,72.7005 -55.2967,75.7545 -81.414,88.61175 -22.851,11.24925 -27.0135,12.03525 -68.7258,12.97875 -30.0197,0.67875 -48.5602,-0.56025 -57.2411,-3.82425 z" /><path
       id="path400-1"
       fill="#2a186e"
       stroke-opacity="0"
       stroke="#000000"
       stroke-width="0"
       stroke-linecap="square"
       stroke-linejoin="bevel"
       d="m 2599.3859,271.21834 c -35.9398,-5.81475 -62.3812,-12.9885 -80.4074,-21.81525 -19.4919,-9.54375 -20.4766,-10.695 -20.4766,-23.9325 0,-13.90575 6.31,-32.5935 11.0055,-32.5935 1.37,0 4.3027,-3.9765 6.5172,-8.83725 2.2145,-4.86 9.4955,-16.08675 16.18,-24.94875 6.6845,-8.86125 15.0491,-20.15475 18.5881,-25.0965 13.1976,-18.429 23.0482,-31.58775 27.4867,-36.717 2.5155,-2.90625 12.1065,-15.5475 21.3135,-28.090875 21.9818,-29.9478 48.2835,-43.563225 95.721,-49.550835 28.5158,-3.599377 36.6915,-3.31236 58.4258,2.050965 37.719,9.30822 39.4897,13.76922 17.0827,43.047945 -5.5125,7.202475 -20.2725,27.01245 -32.8005,44.0223 -12.528,17.00925 -24.9652,33.459 -27.6382,36.5535 -6.9713,8.07225 -21.1193,42.09825 -21.1193,50.793 0,10.29675 14.1308,24.57 29.1758,29.4705 8.076,2.63025 32.673,3.558 67.8675,2.5605 45.0742,-1.27875 61.5922,-3.33975 90.0502,-11.238 46.8548,-13.00425 72.0488,-25.0155 91.17,-43.4655 14.6963,-14.18025 60.5318,-72.34875 74.2313,-94.2045 5.709,-9.107925 26.1082,-30.5907 37.3822,-39.36735 24.8175,-19.321222 112.7648,-26.70885 144.8078,-12.16395 15.477,7.02495 19.104,12.169125 11.7742,16.6989 -2.0992,1.297575 -8.124,9.2364 -13.3882,17.64195 -5.2643,8.40555 -10.626,16.1082 -11.916,17.117025 -5.247,4.103025 -36.912,48.018675 -36.912,51.191925 0,1.881 -3.039,5.577 -6.753,8.21325 -3.7148,2.63625 -11.1398,11.397 -16.5008,19.46775 -5.361,8.07075 -14.121,21.2775 -19.4662,29.34825 -5.346,8.07075 -11.9003,15.9645 -14.5658,17.5425 -2.6647,1.57725 -7.4632,8.181 -10.6635,14.67375 -7.251,14.7135 -36.651,39.07275 -55.4527,45.94425 -7.7918,2.84775 -31.1063,6.04125 -51.81,7.0965 -30.126,1.53525 -40.932,0.66225 -54.1103,-4.371 -14.8687,-5.67825 -16.4677,-7.45275 -16.4677,-18.27675 v -11.98875 l -17.4255,2.8155 c -9.5835,1.54875 -29.8065,6.21075 -44.9393,10.35975 -51.4942,14.11875 -94.6597,19.14675 -176.088,20.5095 -43.38,0.726 -83.8252,0.51825 -89.8785,-0.46125 z" /><path
       id="path401-2"
       fill="#2a186e"
       stroke-opacity="0"
       stroke="#000000"
       stroke-width="0"
       stroke-linecap="square"
       stroke-linejoin="bevel"
       d="m 3421.1316,273.32412 c -83.4893,-5.93025 -129.0276,-16.24575 -160.8498,-36.4365 -16.841,-10.68525 -17.5049,-11.7075 -12.5965,-19.39125 8.4256,-13.1895 36.3262,-24.9105 65.9037,-27.6855 41.7511,-3.91725 61.0613,-0.123 86.1803,16.935 38.1855,25.93125 43.3043,27.1905 118.5781,29.1765 52.5479,1.38675 75.5684,0.45 101.9849,-4.1505 35.8845,-6.249 67.8915,-19.6395 71.8973,-30.07875 2.7667,-7.20825 3.45,-6.3495 -10.6335,-13.36725 -17.949,-8.943 -42.8362,-13.46475 -137.5695,-24.993 -133.419,-16.236 -176.2335,-26.2905 -194.4323,-45.6615 -7.2075,-7.6725 -7.9162,-10.4805 -4.5232,-17.92725 7.8195,-17.161425 51.837,-43.151625 93.1508,-55.0008 63.3195,-18.160575 188.0137,-30.132345 274.5562,-26.359854 46.7303,2.037017 67.4505,4.006509 120.7695,11.479404 34.095,4.77855 78.3247,22.35765 82.2967,32.708925 6.2325,16.2408 -42.183,34.923825 -90.5017,34.923825 -28.2818,0 -31.713,-0.9405 -70.2322,-19.25955 l -40.4978,-19.2597 h -75.2048 c -67.9762,0 -77.7524,0.801 -101.7142,8.3334 -23.1885,7.2894 -34.0207,15.0414 -34.0207,24.347775 0,1.089825 5.0594,4.597575 11.2424,7.794825 12.3736,6.39825 52.4603,13.182 117.1553,19.82475 151.9207,15.5985 207.702,28.269 230.0835,52.26225 l 8.1382,8.724 -16.9582,17.4465 c -42.336,43.5555 -132.5288,67.4865 -285.462,75.7425 -76.2488,4.116 -87.1252,4.10625 -146.7405,-0.12825 z" /><path
       id="path402-7"
       fill="#2a186e"
       stroke-opacity="0"
       stroke="#000000"
       stroke-width="0"
       stroke-linecap="square"
       stroke-linejoin="bevel"
       d="m 4231.8719,274.80848 c -87.4651,-5.34675 -146.0348,-16.29225 -180.6277,-33.7545 -36.2966,-18.3225 -44.0962,-29.784 -41.5141,-61.0065 1.7278,-20.89125 17.8151,-40.45725 57.059,-69.396 57.3797,-42.312675 137.155,-68.9916 254.9612,-85.266435 63.9765,-8.83827 211.1978,-8.789235 260.4645,0.08675 52.6485,9.485483 102.315,27.074933 116.4983,41.258333 7.9845,7.984425 10.854,23.90385 7.3582,40.821602 -2.5784,12.477 -6.2625,17.64075 -18.5969,26.067 -33.6181,22.96425 -64.4768,26.12325 -261.0751,26.724 -86.8132,0.2655 -176.8267,1.50375 -200.0302,2.75175 l -42.1875,2.26875 -1.0928,18.786 c -0.9952,17.121 -0.086,19.63275 10.2623,28.34025 17.16,14.439 44.289,20.93925 97.2173,23.29425 60.0839,2.67375 120.4267,-4.9485 201.768,-25.48425 44.0542,-11.12175 66.0164,-14.83125 88.044,-14.87025 29.2409,-0.051 51.8587,3.3255 54.8654,8.19075 3.3668,5.44725 -30.909,23.05575 -68.5905,35.23725 -80.5919,26.05425 -231.5362,42.26325 -334.7834,35.95125 z m 313.9267,-155.30175 c 5.6782,-8.52525 1.0612,-28.907025 -8.319,-36.72465 -20.064,-16.720725 -40.5525,-20.15445 -118.5135,-19.861875 -63.5715,0.2385 -77.2898,1.34865 -102.7185,8.312475 -47.352,12.96765 -100.884,40.9458 -100.884,52.72605 0,1.7535 73.0935,2.6985 163.3852,2.112 140.349,-0.91125 163.9013,-1.83675 167.0498,-6.564 z" /><path
       id="path403-0"
       fill="#2a186e"
       stroke-opacity="0"
       stroke="#000000"
       stroke-width="0"
       stroke-linecap="square"
       stroke-linejoin="bevel"
       d="m 4777.5626,268.11451 c -6.5575,-2.85 -11.9158,-7.32525 -11.9073,-9.94425 0.045,-13.86375 26.5792,-52.194 151.8615,-219.3705 8.3167,-11.09775 21.2468,-29.25675 28.734,-40.35375 31.179,-46.2111 57.8918,-65.152575 104.0865,-73.80549 29.4862,-5.523142 70.1745,-2.08212 89.0108,7.52769 15.9074,8.115375 18.5032,12.6117 10.0949,17.48775 -2.7824,1.61355 -8.1479,7.886175 -11.9227,13.9392 -8.1892,13.130925 -55.2953,76.8366 -85.8817,116.1471 -12.0263,15.456 -21.8663,29.30625 -21.8663,30.77775 0,6.08175 43.893,-2.56725 90.966,-17.925 60.4365,-19.7175 175.0312,-54.1155 214.6013,-64.4175 57.126,-14.87175 102.6787,-13.62075 120.8624,3.32025 7.3261,6.825 7.3013,6.89475 -5.0144,14.475 -14.9896,9.225 -87.1343,32.23875 -150.741,48.08475 -25.6583,6.39225 -49.5953,13.9575 -53.193,16.81125 -6.1425,4.87275 -5.8703,5.68575 4.4639,13.3335 15.597,11.5425 104.4015,98.50875 108.7741,106.52325 10.8734,19.92975 -29.2403,39.12975 -87.7216,41.98575 -51.5677,2.5185 -61.164,-1.52325 -99.393,-41.862 -16.4347,-17.34075 -29.8807,-31.89375 -29.8807,-32.33925 0,-0.4455 -9.009,-10.2615 -20.019,-21.813 l -20.0198,-21.00225 -17.5829,2.49675 c -27.1996,3.861 -97.227,23.415 -107.4608,30.006 -10.5158,6.77175 -15.207,12.0615 -32.9618,37.167 -16.5727,23.433 -28.8435,31.43625 -62.346,40.66275 -32.7997,9.033 -87.0932,10.107 -105.5434,2.08725 z" /><path
       id="path404-9"
       fill="#2a186e"
       stroke-opacity="0"
       stroke="#000000"
       stroke-width="0"
       stroke-linecap="square"
       stroke-linejoin="bevel"
       d="m 358.91538,605.08447 c -6.75571,-0.80925 -7.78208,-1.4055 -7.78208,-4.52175 0,-1.44975 0.56108,-3.7185 1.24673,-5.04225 0.68572,-1.323 7.90852,-8.8155 16.0506,-16.65 20.50972,-19.734 67.16242,-66.06338 71.84167,-71.34398 3.129,-3.531 3.93675,-4.13925 4.263,-3.20977 0.3105,0.8868 0.639,0.5541 1.44825,-1.4676 0.747,-1.8681 3.8805,-5.30873 10.977,-12.05288 17.496,-16.62802 27.59325,-24.41572 38.46525,-29.66864 11.6685,-5.63715 19.578,-6.43725 42.153,-4.2639 15.61875,1.5036 14.742,0.87638 8.88,6.3525 -2.7435,2.56349 -13.30575,12.58147 -23.47125,22.26217 -10.1655,9.68078 -21.76575,20.62995 -25.77825,24.33157 -4.0125,3.70155 -7.29525,6.99353 -7.29525,7.31543 0,0.3219 0.8025,0.44317 1.78275,0.26962 0.981,-0.17362 4.41,-0.78404 7.62,-1.35652 3.21075,-0.57247 10.61025,-1.48755 16.44375,-2.0334 13.22775,-1.2378 18.036,-2.23088 25.221,-5.20935 7.52025,-3.1176 32.07225,-12.8988 42.64125,-16.98773 4.63725,-1.79385 25.94025,-9.02647 47.3415,-16.07242 21.4005,-7.04595 39.417,-13.06567 40.0365,-13.37729 0.61875,-0.31155 1.7865,-0.5793 2.5935,-0.5949 0.80775,-0.0157 2.48925,-0.42818 3.738,-0.91665 5.98125,-2.34075 7.81425,-2.90183 10.554,-3.2307 1.626,-0.19523 3.6375,-0.61268 4.47,-0.92775 2.565,-0.97125 30.663,-0.73298 36.753,0.3117 8.5455,1.46602 11.643,3.71775 8.4735,6.15975 -2.29725,1.76924 -21.993,11.38386 -29.1225,14.21609 -6.84375,2.7189 -65.034,21.7083 -85.27875,27.82935 -14.2695,4.3146 -24.6735,8.10503 -26.42625,9.62768 -0.624,0.54232 -1.13475,1.83352 -1.13475,2.86934 0,1.25018 -0.24975,1.72891 -0.74325,1.42403 -1.1475,-0.7092 -0.24,2.1918 3.37125,10.7769 1.76475,4.19535 3.2085,8.0511 3.2085,8.5686 0,0.51675 0.5835,1.46775 1.29675,2.1135 0.71325,0.64575 1.2975,1.524 1.2975,1.9515 0,0.4275 0.71925,1.554 1.59825,2.50275 0.87975,0.94875 1.9305,2.9565 2.3355,4.461 0.9345,3.471 3.56025,8.691 5.59125,11.118 0.86325,1.0305 2.412,3.73275 3.44175,6.0045 1.02975,2.271 2.283,4.287 2.7855,4.47975 0.5025,0.19275 0.93825,1.1385 0.969,2.10225 0.0308,0.963 0.51225,2.8365 1.07025,4.1625 1.2,2.85 1.36425,11.51475 0.29925,15.744 -0.87825,3.48825 -2.259,4.8105 -5.52675,5.2935 -1.38225,0.204 -5.43075,1.33875 -8.99775,2.52225 -9.684,3.21375 -18.60675,4.41675 -33.126,4.46625 l -12.3735,0.042 -2.652,-1.83525 c -5.04075,-3.489 -7.26525,-8.11875 -9.135,-19.011 -0.59325,-3.45675 -1.40475,-6.39225 -1.80375,-6.525 -0.909,-0.30225 -1.545,2.77725 -1.545,7.47825 0,2.172 -0.23325,3.36975 -0.585,3 -0.93975,-0.99 -2.50125,-6.17625 -3.624,-12.03975 -1.5855,-8.27475 -1.608,-8.3565 -2.28825,-8.3565 -0.35025,0 -0.6405,0.94875 -0.6465,2.10825 -0.008,1.76625 -1.24725,5.16075 -1.2765,3.49875 -0.009,-0.5205 -0.7965,-4.7295 -3.95925,-21.171 -1.7865,-9.2895 -3.02775,-12.9705 -4.37175,-12.9675 -4.55025,0.009 -22.55475,2.30325 -28.53975,3.6375 -14.8035,3.3 -32.835,9.14775 -41.2845,13.3905 -7.572,3.80175 -12.9015,7.953 -29.103,22.66875 -20.36055,18.49275 -29.73682,23.769 -45.78262,25.76475 -6.1776,0.76875 -20.22488,0.7725 -26.6058,0.008 z" /><path
       id="path405-3"
       fill="#2a186e"
       stroke-opacity="0"
       stroke="#000000"
       stroke-width="0"
       stroke-linecap="square"
       stroke-linejoin="bevel"
       d="m 698.04027,606.42581 c -11.90385,-1.956 -24.64702,-5.10975 -27.57172,-6.8235 -3.47375,-2.03625 -6.83533,-5.8485 -6.32638,-7.1745 0.25575,-0.66675 -0.0585,-1.12875 -0.92115,-1.3545 -1.2666,-0.3315 -1.24072,-0.50025 0.79208,-5.175 1.15582,-2.658 2.9475,-5.73675 3.98137,-6.84075 3.17195,-3.387 11.07763,-8.1777 22.95635,-13.91032 6.24188,-3.0123 12.48001,-6.08011 13.86263,-6.81736 4.79152,-2.55517 17.3601,-6.39464 22.1295,-6.76019 1.42665,-0.10936 4.19902,-0.66023 6.1608,-1.22408 1.9617,-0.56385 5.75535,-1.30095 8.4306,-1.638 2.67525,-0.33705 7.05225,-0.90068 9.7275,-1.25258 2.67525,-0.3519 10.70025,-1.10534 17.83425,-1.67429 7.13325,-0.56903 18.369,-1.62796 24.9675,-2.3532 29.9805,-3.29543 36.2205,-3.89461 49.6425,-4.76708 20.47425,-1.3308 21.486,-1.64033 28.4475,-8.7042 l 3.83625,-3.89265 -2.21475,-4.41225 c -3.28125,-6.53528 -2.5815,-6.3594 -25.2375,-6.34853 -20.487,0.01 -29.11725,0.75705 -45.39525,3.93113 -8.727,1.7016 -11.8485,2.60295 -23.292,6.72555 -11.1315,4.01032 -16.2255,5.15505 -27.61575,6.20573 -14.87775,1.37235 -16.6323,1.31047 -18.47595,-0.65213 -1.42328,-1.515 -1.45028,-1.68795 -0.43733,-2.80718 0.59371,-0.65602 1.0794,-1.94302 1.0794,-2.86005 0,-1.19565 1.02008,-2.59957 3.60638,-4.96335 3.6855,-3.36795 12.6435,-8.19007 13.28775,-7.15289 0.19725,0.31627 2.05125,-0.48406 4.1205,-1.77856 3.0465,-1.90567 3.876,-2.18182 4.3575,-1.45102 0.48825,0.7416 0.79425,0.67132 1.716,-0.39443 0.7425,-0.85784 1.97625,-1.31482 3.64425,-1.34947 1.45575,-0.03 2.8275,-0.46897 3.243,-1.03755 0.396,-0.5418 1.596,-1.14833 2.6655,-1.34783 1.07025,-0.1995 3.696,-0.8541 5.8365,-1.45477 2.13975,-0.6006 4.97175,-1.05881 6.2925,-1.01816 1.794,0.0548 2.58,-0.25785 3.1035,-1.23668 0.5415,-1.0122 1.35525,-1.31047 3.5745,-1.31047 1.5795,0 4.12275,-0.41663 5.65125,-0.92588 3.73575,-1.24485 19.764,-2.18587 45.25575,-2.65702 11.592,-0.21428 25.0575,-0.64988 29.92275,-0.96803 8.97825,-0.58687 21.399,0.015 28.443,1.37745 1.962,0.37958 5.46375,0.78045 7.782,0.89085 4.37625,0.2085 16.6905,3.14963 17.79,4.24875 0.90825,0.90814 3.60825,0.77209 3.6255,-0.1827 0.008,-0.44587 0.51825,-0.18802 1.13475,0.57293 0.6165,0.76098 2.274,1.58786 3.684,1.83753 2.763,0.48923 7.49625,2.66663 7.476,3.43935 -0.0623,2.41741 -11.847,20.24423 -13.38675,20.24985 -0.91575,0 -4.10925,3.69413 -4.11375,4.75418 0,0.4185 -4.266,5.28428 -9.47775,10.81275 -12.2205,12.96435 -21.80625,24.25665 -31.32975,36.90435 -12.8985,17.13225 -17.8665,21.04425 -29.22825,23.02125 -8.7435,1.521 -12.32175,1.86525 -12.32175,1.18425 0,-0.34125 -1.58475,-0.80625 -3.52125,-1.03425 -1.9365,-0.22725 -7.70025,-1.434 -12.80775,-2.68125 -16.65825,-4.06725 -23.958,-4.06725 -50.46675,0 -25.7325,3.9495 -35.96325,4.95975 -52.85348,5.2215 -13.04115,0.20175 -16.78027,0.0412 -23.0661,-0.9915 z m 69.41483,-18.843 c 14.46375,-0.70125 24.27975,-1.92975 28.04625,-3.50925 1.32675,-0.55575 3.11925,-1.011 3.984,-1.011 0.8655,0 1.74075,-0.438 1.94625,-0.97275 0.21975,-0.57225 1.1925,-0.97275 2.36325,-0.97275 4.5495,0 24.76275,-9.507 34.803,-16.3686 4.57125,-3.1242 11.23725,-9.52245 11.23725,-10.78612 0,-1.12283 -2.60775,-1.52791 -7.04625,-1.09455 -35.8995,3.50482 -78.216,9.35257 -91.6545,12.66577 -7.4475,1.83608 -12.8625,4.62503 -16.13917,8.3115 -9.55816,10.75575 -6.76441,13.02975 17.56342,14.298 0.89175,0.0465 7.59525,-0.2055 14.8965,-0.56025 z" /><path
       id="path406-6"
       fill="#2a186e"
       stroke-opacity="0"
       stroke="#000000"
       stroke-width="0"
       stroke-linecap="square"
       stroke-linejoin="bevel"
       d="m 908.52482,476.59723 c -6.14287,-0.69742 -13.21676,-2.26057 -14.30043,-3.15989 -0.48398,-0.4017 -0.61395,-1.42268 -0.3486,-2.73833 0.55117,-2.733 4.02682,-4.62029 15.24633,-8.27887 l 8.37945,-2.73247 13.99403,-0.0828 c 16.09515,-0.0953 17.56087,0.1299 17.56087,2.6973 0,4.52572 -7.38502,10.60507 -16.3062,13.42326 -4.2906,1.3554 -6.33209,1.61625 -12.09945,1.54568 -3.81592,-0.0465 -9.27262,-0.34987 -12.126,-0.67388 z" /><path
       id="path407-0"
       fill="#2a186e"
       stroke-opacity="0"
       stroke="#000000"
       stroke-width="0"
       stroke-linecap="square"
       stroke-linejoin="bevel"
       d="m 826.81295,476.93288 c -5.76698,-0.88642 -10.48238,-2.00152 -14.26715,-3.37402 -1.07003,-0.38798 -2.8206,-0.8835 -3.89025,-1.10108 -1.88775,-0.384 -1.90673,-0.42405 -0.64845,-1.36845 2.14867,-1.61273 9.24372,-5.00527 18.04595,-8.62867 l 8.31922,-3.42458 14.37855,0.47205 c 14.54025,0.47745 20.9274,1.11533 22.01033,2.19825 1.4016,1.4016 -22.74675,14.29395 -29.2266,15.60353 -4.22633,0.85417 -7.20787,0.77782 -14.7216,-0.37703 z" /><path
       id="path408-6"
       fill="#2a186e"
       stroke-opacity="0"
       stroke="#000000"
       stroke-width="0"
       stroke-linecap="square"
       stroke-linejoin="bevel"
       d="m 942.85633,605.85257 c -6.51165,-0.378 -7.36253,-0.576 -9.22786,-2.1465 l -2.05477,-1.73025 2.81903,-3.78225 c 4.17615,-5.6025 35.00047,-37.41375 74.98747,-77.38702 35.1233,-35.11201 46.7783,-46.16123 56.3025,-53.37488 9.4763,-7.17737 20.9543,-11.60387 32.5305,-12.54475 6.0923,-0.49522 19.614,0.78173 22.1468,2.09153 2.7052,1.39912 3.6765,3.7833 2.3992,5.88902 -0.9517,1.5684 -54.2775,56.2914 -95.8762,98.38785 -34.06197,34.46925 -38.46222,37.77075 -57.23675,42.939 -6.7137,1.848 -14.84137,2.35125 -26.78992,1.65825 z" /><path
       id="path409-2"
       fill="#2a186e"
       stroke-opacity="0"
       stroke="#000000"
       stroke-width="0"
       stroke-linecap="square"
       stroke-linejoin="bevel"
       d="m 1088.8098,606.12148 c -5.5981,-1.32675 -16.9745,-5.2965 -19.5758,-6.83175 -1.2228,-0.7215 -2.8048,-1.31175 -3.5155,-1.31175 -0.7106,0 -2.208,-0.47325 -3.3275,-1.05225 l -2.0354,-1.05225 1.6852,-0.73125 c 0.9268,-0.402 2.9365,-2.3355 4.4659,-4.2975 1.5294,-1.962 5.1348,-6.1935 8.0121,-9.4035 6.2577,-6.98175 12.3681,-14.5425 14.7901,-18.3015 1.1783,-1.8285 2.0861,-2.613 2.7345,-2.364 0.6506,0.249 4.6124,-3.228 12.0172,-10.5495 6.0756,-6.00675 11.6075,-11.12925 12.2932,-11.38275 0.6856,-0.2535 1.7296,-1.395 2.3199,-2.5365 0.5904,-1.1415 2.9403,-4.06335 5.2221,-6.4929 4.6212,-4.92037 5.1708,-6.88537 2.7769,-9.92857 -1.0825,-1.37625 -1.7379,-1.66343 -3.1087,-1.36238 -2.3919,0.52537 -4.4709,-1.79242 -4.9874,-5.56012 -0.3824,-2.79053 -0.2894,-3.00398 2.3461,-5.385 1.5094,-1.36366 4.3129,-3.17303 6.23,-4.0209 1.9172,-0.8478 3.4858,-1.83706 3.4858,-2.19825 0,-0.36113 1.0405,-0.65663 2.3124,-0.65663 1.2718,0 2.8757,-0.30157 3.5642,-0.67013 0.6893,-0.36854 2.901,-0.97492 4.9163,-1.34744 10.746,-1.98638 15.5377,-4.69088 31.3597,-17.69805 11.4263,-9.393 20.5193,-15.69434 26.679,-18.48704 2.325,-1.05427 7.362,-2.57453 11.193,-3.37838 6.789,-1.42462 7.2953,-1.44052 20.0528,-0.62767 7.1977,0.45863 13.4505,1.03448 13.8945,1.27957 0.5452,0.30091 -0.8318,2.22871 -4.239,5.93392 -2.7765,3.01844 -6.897,7.77157 -9.1575,10.56255 -4.4018,5.43405 -16.7648,16.93455 -21.267,19.78282 -1.5053,0.95235 -2.748,1.95045 -2.7608,2.2179 -0.036,0.73838 2.9498,0.58125 4.7768,-0.2514 2.2522,-1.026 37.923,1.0503 41.478,2.41433 0.5842,0.22425 1.0627,0.7998 1.0627,1.27889 0,0.47918 0.4478,1.12208 0.996,1.42868 0.741,0.41475 -0.6285,1.33395 -5.3505,3.59145 -8.8635,4.23743 -14.6557,6.0705 -25.1527,7.96005 -4.9935,0.89888 -10.2158,1.93515 -11.604,2.30272 -1.8795,0.49756 -2.6483,0.46936 -3.006,-0.1101 -0.3615,-0.58484 -2.142,-0.3405 -7.1565,0.98221 -8.358,2.20455 -12.5723,4.05825 -18.033,7.93222 -3.8168,2.70795 -55.8555,53.62515 -55.8555,54.6519 0,0.59775 5.9062,2.61825 7.6432,2.6145 0.8145,0 2.1413,0.429 2.9483,0.95775 2.1825,1.43025 9.2385,2.15775 28.0777,2.895 9.3188,0.36525 17.4255,0.84825 18.0135,1.074 0.5888,0.22575 1.3478,0.92925 1.6868,1.56225 2.5762,4.81425 -19.2458,13.02225 -42.336,15.92325 -11.522,1.4475 -51.2636,1.89975 -56.5651,0.6435 z m 151.3486,-141.73566 c 0.8017,-1.42672 1.1925,-2.59402 0.8685,-2.59402 -0.7283,0 -2.3183,1.78357 -3.324,3.72891 -1.407,2.71935 0.8842,1.66057 2.4555,-1.13489 z" /><path
       id="path410-6"
       fill="#2a186e"
       stroke-opacity="0"
       stroke="#000000"
       stroke-width="0"
       stroke-linecap="square"
       stroke-linejoin="bevel"
       d="m 1286.6044,607.26563 c -23.6882,-1.185 -41.345,-5.11575 -50.4045,-11.22 -9.1923,-6.1935 -15.4088,-13.1595 -14.3067,-16.03125 0.3384,-0.882 0.063,-0.981 -1.731,-0.62175 -1.8086,0.3615 -2.0155,0.28425 -1.3588,-0.507 0.4261,-0.513 1.4101,-1.02375 2.1868,-1.134 1.1378,-0.162 1.4529,-0.705 1.6224,-2.79525 0.1157,-1.42725 0.6264,-2.8275 1.1349,-3.1125 0.5085,-0.28575 0.9245,-1.0515 0.9245,-1.70258 0,-0.79852 0.6381,-1.31137 1.9608,-1.57589 1.0784,-0.2157 2.1209,-0.90878 2.3165,-1.5402 0.1957,-0.63143 0.6272,-1.5858 0.959,-2.12078 0.3318,-0.53505 0.861,-1.55648 1.1758,-2.2698 0.3149,-0.71332 1.1897,-1.85295 1.944,-2.53245 0.7543,-0.67942 1.3715,-1.77383 1.3715,-2.43188 0,-0.65805 0.3648,-1.20757 0.8106,-1.22107 0.4458,-0.0135 1.832,-1.34385 3.0804,-2.95627 1.2483,-1.61251 4.1667,-4.34153 6.4851,-6.06458 4.878,-3.62528 20.9574,-14.35913 23.3462,-15.58492 0.8917,-0.45758 3.5982,-2.1339 6.0145,-3.72526 9.5266,-6.27412 27.4503,-14.65649 41.0283,-19.18784 7.1475,-2.38538 13.5675,-4.34641 14.2672,-4.35773 0.699,-0.0113 1.8375,-0.4491 2.5298,-0.97276 1.4377,-1.0872 3.6052,-1.26975 3.6052,-0.3036 0,1.06704 1.2345,0.73621 2.4203,-0.64852 0.6105,-0.71333 1.8479,-1.30155 2.7495,-1.30718 0.9015,-0.007 3.39,-0.43852 5.5305,-0.96217 11.1727,-2.73398 40.1212,-4.45305 67.4445,-4.0053 18.2625,0.29932 24.1215,0.71632 25.2592,1.79797 0.339,0.32213 1.5885,0.5856 2.7772,0.5856 1.1881,0 3.2243,0.44445 4.5248,0.9876 1.8465,0.77153 2.472,0.81218 2.859,0.18585 0.3848,-0.62332 0.9735,-0.57382 2.6438,0.2229 1.182,0.56355 3.0997,1.23353 4.2622,1.48883 3.4185,0.7509 13.3793,5.21475 16.6365,7.45545 1.6553,1.13873 4.2083,3.21136 5.6745,4.60583 2.2455,2.13645 2.5358,2.69153 1.842,3.52732 -0.5168,0.62243 -0.7043,2.04968 -0.5033,3.83138 0.2408,2.13263 -0.06,3.62475 -1.2075,5.99347 -1.8944,3.91298 -2.0227,5.75513 -0.2422,3.4782 0.8333,-1.0647 1.2735,-1.29142 1.2825,-0.66059 0.048,3.19859 -20.277,17.98987 -28.8435,20.99077 -0.714,0.2499 -2.0273,0.86213 -2.9182,1.36057 -2.0453,1.14315 -7.0478,1.82768 -31.3628,4.29143 -23.8462,2.41642 -40.3868,3.13387 -73.3717,3.18255 -27.1958,0.0405 -41.8305,0.7422 -47.9033,2.29807 -4.4125,1.13041 -12.0739,4.9878 -13.9494,7.02323 -0.708,0.76845 -2.4941,2.64435 -3.9691,4.16835 l -2.6817,2.77125 2.475,1.01475 c 1.3613,0.558 4.7005,2.01 7.4205,3.22725 2.72,1.21725 5.1545,2.21325 5.41,2.21325 0.2555,0 1.2066,0.5835 2.1135,1.29675 0.9069,0.71325 2.2137,1.29675 2.9045,1.29675 0.6907,0 1.6537,0.3975 2.139,0.88275 0.486,0.486 2.0377,1.068 3.4499,1.29375 1.4116,0.22575 2.7353,0.84975 2.9416,1.38675 0.4522,1.17975 1.7122,1.30125 1.7114,0.16575 -7e-4,-0.6255 2.5493,-0.75975 11.1863,-0.5865 20.0265,0.40125 31.2225,-0.978 54.3135,-6.69075 9.0952,-2.25 19.869,-4.57125 23.9407,-5.15775 7.2353,-1.04175 41.4263,-2.667 42.0923,-2.001 1.3628,1.36275 -9.7013,7.7415 -24.1672,13.935 -17.7631,7.6035 -31.4153,11.70225 -48.633,14.5995 -21.6083,3.63675 -54.9053,5.547 -77.2143,4.43025 z m 107.3815,-65.6619 c 8.3768,-0.3339 13.9058,-0.83085 14.847,-1.33447 2.6423,-1.41398 7.2435,-6.05498 9.4988,-9.58058 1.2037,-1.88258 2.1892,-3.64703 2.1892,-3.921 0,-1.14308 -6.381,-6.64642 -9.0788,-7.83037 -9.2002,-4.0371 -28.9867,-4.80923 -46.0439,-1.79678 -25.3628,4.47907 -36.4763,8.61555 -47.307,17.60828 -5.0535,4.19602 -6.048,6.28717 -2.3138,4.86757 1.4423,-0.54848 1.9395,-0.47805 2.5538,0.36173 0.5542,0.75757 2.4382,1.17967 6.891,1.54327 8.361,0.68273 52.3792,0.73545 68.7637,0.0824 z" /><path
       id="path411-1"
       fill="#2a186e"
       stroke-opacity="0"
       stroke="#000000"
       stroke-width="0"
       stroke-linecap="square"
       stroke-linejoin="bevel"
       d="m 1505.7996,561.12276 c -32.8852,-1.3077 -37.3541,-3.74377 -22.7228,-12.38669 7.1596,-4.22925 15.014,-5.12887 52.9915,-6.06945 45.1402,-1.11795 73.4924,0.69645 73.4924,4.70325 0,1.20773 -7.296,4.52257 -16.2127,7.36627 -16.7903,5.3547 -50.9088,7.84357 -87.5484,6.38662 z" /><path
       id="path412-8"
       fill="#2a186e"
       stroke-opacity="0"
       stroke="#000000"
       stroke-width="0"
       stroke-linecap="square"
       stroke-linejoin="bevel"
       d="m 1772.9844,604.5591 c -17.0515,-2.63625 -31.8704,-7.2255 -37.6935,-11.673 -5.0379,-3.84825 -5.0292,-3.924 0.6369,-5.52 3.1598,-0.89025 9.3059,-7.16775 13.6582,-13.95 11.3119,-17.62792 57.1849,-60.6129 73.2042,-68.5959 13.152,-6.55373 27.9,-8.40998 40.3365,-5.07705 3.21,0.86032 5.8365,2.45827 5.8365,3.5511 0,1.09275 -7.7227,9.41963 -17.1615,18.50415 -9.4387,9.08445 -25.3868,25.78612 -35.4397,37.11473 l -18.2786,20.59747 8.8511,3.20025 c 13.6867,4.94775 41.1757,4.2585 59.8102,-1.50075 21.9195,-6.774 34.7873,-15.3654 65.7727,-43.91303 33.3308,-30.70927 43.6126,-36.84097 64.5998,-38.52562 30.6533,-2.46053 30.2303,-1.5138 -22.4475,50.30182 -56.6535,55.72583 -60.309,57.82808 -92.022,52.92833 -16.638,-2.571 -26.622,-2.40075 -57.0225,0.96975 -20.2687,2.247 -37.7785,3.93 -38.9101,3.7395 -1.1317,-0.1905 -7.3105,-1.15875 -13.7307,-2.15175 z" /><path
       id="path413-7"
       fill="#2a186e"
       stroke-opacity="0"
       stroke="#000000"
       stroke-width="0"
       stroke-linecap="square"
       stroke-linejoin="bevel"
       d="m 1485.6959,558.66034 c -9.9383,-1.43618 -10.5348,-3.43568 -2.594,-8.69614 4.6272,-3.06533 17.7966,-4.03785 63.5537,-4.69335 60.766,-0.87045 69.5207,0.8631 44.0987,8.73251 -13.596,4.2087 -85.9623,7.41653 -105.0584,4.65698 z" /><path
       id="path414-9"
       fill="#2a186e"
       stroke-opacity="0"
       stroke="#000000"
       stroke-width="0"
       stroke-linecap="square"
       stroke-linejoin="bevel"
       d="m 1993.4767,601.39382 c 0,-1.689 19.5525,-22.7505 43.45,-46.80435 56.177,-56.54492 71.0307,-64.33132 96.9493,-50.82205 10.68,5.56705 11.136,5.5876 27.9652,1.26128 35.9925,-9.25223 98.322,-7.81883 106.8502,2.45725 4.7761,5.75504 -0.2369,13.0212 -34.8082,50.45092 -35.7255,38.67945 -48.132,46.6902 -71.6558,46.26795 -7.9229,-0.1425 -17.1007,-1.01775 -20.3939,-1.9455 -5.6205,-1.58325 -5.1998,-2.28825 6.8475,-11.47575 18.2309,-13.90275 50.529,-48.37095 54.6509,-58.3236 5.2838,-12.7557 0.9915,-16.19355 -20.2162,-16.19355 -20.7683,0 -47.0333,6.8811 -63.8227,16.72065 -6.7801,3.97328 -26.3108,20.04023 -43.4018,35.70428 -17.0905,15.66397 -35.0005,30.12097 -39.7997,32.12572 -10.8737,4.5435 -42.6148,4.9725 -42.6148,0.57675 z" /><path
       id="path415-2"
       fill="#2a186e"
       stroke-opacity="0"
       stroke="#000000"
       stroke-width="0"
       stroke-linecap="square"
       stroke-linejoin="bevel"
       d="m 2293.4756,604.48559 c -6.9197,-1.2435 -18.7498,-5.38125 -26.2891,-9.19575 l -13.7077,-6.936 9.4279,-13.122 c 23.3128,-32.44725 42.8881,-48.42615 75.6986,-61.7904 39.933,-16.26518 87.684,-19.91355 127.2405,-9.72157 l 22.3058,5.74717 25.1632,-22.7262 c 13.839,-12.49942 29.1533,-24.39367 34.0305,-26.43164 10.434,-4.35968 36.4958,-4.94715 39.0097,-0.87945 2.3993,3.88162 -124.5615,131.06534 -137.553,137.79509 -18.9982,9.84075 -24.6315,10.42275 -41.2132,4.26075 -14.958,-5.559 -15.5753,-5.58075 -38.91,-1.34475 -30.4987,5.53575 -59.3069,7.2 -75.2032,4.34475 z m 89.1052,-20.667 c 29.0655,-5.42325 72.633,-34.34025 72.633,-48.20925 0,-12.7626 -12.3015,-19.34295 -36.159,-19.34295 -38.3565,0 -86.0175,24.12195 -102.1485,51.69945 l -4.7148,8.06025 10.6051,4.7475 c 12.4247,5.56275 39.0265,6.91725 59.7842,3.045 z" /><path
       id="path417-0"
       fill="#2a186e"
       stroke-opacity="0"
       stroke="#000000"
       stroke-width="0"
       stroke-linecap="square"
       stroke-linejoin="bevel"
       d="m 2633.3367,602.73384 c -4.0909,-4.0905 -1.0799,-11.12025 7.5989,-17.73975 5.1304,-3.9135 33.7522,-31.3905 63.604,-61.06065 60.0814,-59.71614 71.1169,-67.56422 94.2431,-67.02279 7.2106,0.16882 16.6118,1.05975 20.8913,1.97992 7.6718,1.6491 7.7047,1.72793 2.3348,5.52962 -9.3871,6.6459 -56.301,51.92212 -55.0726,53.1504 3.2086,3.20835 49.8811,-6.8244 69.5993,-14.961 12.1267,-5.00423 47.2958,-17.4027 78.1523,-27.55215 48.4312,-15.93032 58.5405,-18.42872 73.9297,-18.27137 21.4628,0.21953 29.1847,2.47913 23.7855,6.96023 -4.9522,4.10972 -41.7757,17.90019 -91.5615,34.28972 -22.8277,7.51477 -43.2315,15.29212 -45.342,17.28292 -3.3825,3.19012 -3.2677,5.23125 0.9645,17.19915 2.6408,7.4685 5.5943,14.163 6.5633,14.87625 0.969,0.714 4.8449,7.27425 8.6122,14.58 6.5002,12.603 8.466,20.36025 7.5562,29.82525 -0.5287,5.49975 -25.8412,12.66375 -44.7435,12.66375 -12.5992,0 -14.949,-0.891 -21.2302,-8.049 -7.3095,-8.33025 -8.9625,-11.58975 -4.4685,-8.8125 1.4265,0.882 2.5943,-0.21675 2.5943,-2.4405 0,-2.2245 -1.4221,-3.75225 -3.1598,-3.396 -1.806,0.37125 -3.7868,-3.24075 -4.623,-8.43075 -0.8363,-5.18925 -2.8163,-8.80125 -4.6222,-8.43 -1.7378,0.35625 -3.1658,-0.81075 -3.1741,-2.59425 -0.01,-1.7835 -1.23,-7.62 -2.7157,-12.9705 -2.577,-9.27825 -3.207,-9.7275 -13.6568,-9.7275 -13.8802,0 -45.2722,8.6325 -61.0155,16.779 -6.6502,3.441 -20.2627,13.4715 -30.2497,22.28925 -23.3946,20.6565 -34.2697,25.653 -55.9876,25.72575 -9.3925,0.0315 -17.8556,-0.7215 -18.8067,-1.6725 z" /><path
       id="path418-2"
       fill="#2a186e"
       stroke-opacity="0"
       stroke="#000000"
       stroke-width="0"
       stroke-linecap="square"
       stroke-linejoin="bevel"
       d="m 2966.2368,599.58937 c 0,-4.77825 104.2305,-110.37345 125.8103,-127.45785 14.2717,-11.29874 25.533,-15.53474 41.1727,-15.48802 26.2583,0.0784 26.6348,-0.5151 -45.0637,71.07667 -73.0644,72.95595 -78.0723,76.58895 -105.7066,76.68645 -14.1554,0.0495 -16.2127,-0.56175 -16.2127,-4.81725 z" /><path
       id="path419-3"
       fill="#2a186e"
       stroke-opacity="0"
       stroke="#000000"
       stroke-width="0"
       stroke-linecap="square"
       stroke-linejoin="bevel"
       d="m 3087.5077,605.09914 c -5.3502,-0.522 -9.7277,-2.35125 -9.7277,-4.06425 0,-3.696 80.8313,-84.2865 92.088,-91.8144 12.3473,-8.25717 26.4105,-11.8253 39.105,-9.92172 6.528,0.97897 11.4788,3.11827 11.4788,4.9605 0,1.78155 -20.7203,23.72187 -46.044,48.75635 -45.5299,45.00877 -50.7586,48.85552 -70.6875,52.00702 -3.5667,0.564 -10.8624,0.5985 -16.2126,0.0765 z" /><path
       id="path420-7"
       fill="#2a186e"
       stroke-opacity="0"
       stroke="#000000"
       stroke-width="0"
       stroke-linecap="square"
       stroke-linejoin="bevel"
       d="m 3206.4912,475.44596 -10.0694,-1.03792 9.367,-6.36503 c 11.4087,-7.75248 31.4707,-11.88063 47.236,-9.71973 14.2197,1.94903 13.8351,5.38792 -1.4757,13.19621 -11.2511,5.7378 -20.0481,6.50437 -45.0579,3.92647 z" /><path
       id="path421-5"
       fill="#2a186e"
       stroke-opacity="0"
       stroke="#000000"
       stroke-width="0"
       stroke-linecap="square"
       stroke-linejoin="bevel"
       d="m 3337.183,605.27192 c -12.8183,-2.10075 -13.6328,-2.877 -9.3855,-8.9415 2.1495,-3.0675 18.5632,-20.4435 36.477,-38.61278 24.414,-24.76297 31.758,-33.69195 29.328,-35.65807 -1.7835,-1.4427 -11.5065,-3.43485 -21.6075,-4.42703 -33.9203,-3.33202 -49.9373,4.64453 -97.5698,48.59123 -16.6828,15.39165 -35.3599,30.2664 -41.5045,33.05565 -12.2575,5.56275 -46.1915,7.3785 -46.1915,2.472 0,-3.594 67.9047,-73.1118 83.766,-85.7556 6.8363,-5.44988 18.8303,-11.92637 26.6528,-14.39229 13.848,-4.36508 14.6265,-4.3383 29.5057,1.0152 14.244,5.12514 16.3103,5.25054 30.4155,1.84567 30.0458,-7.25272 57.459,-7.66072 84.7725,-1.26172 21.5775,5.05531 26.8575,5.44569 39.8723,2.94856 35.0797,-6.73074 52.5922,-8.48491 73.3672,-7.34867 22.2195,1.21523 41.7548,6.18346 43.1693,10.97875 0.4207,1.42672 -17.0025,20.907 -38.718,43.28947 -45.0525,46.43513 -52.5795,51.24488 -80.3265,51.33563 -14.5658,0.0472 -17.5103,-0.663 -17.5103,-4.22325 0,-2.35425 16.593,-20.2725 36.873,-39.8184 35.0393,-33.7704 36.5895,-35.6898 31.1753,-38.58758 -7.7678,-4.1571 -44.1998,-4.3329 -56.6318,-0.2733 -16.6665,5.44253 -34.5442,18.5145 -63.297,46.2822 -33.3727,32.22983 -50.5635,41.10233 -72.6322,37.48583 z" /><path
       id="path422-9"
       fill="#2a186e"
       stroke-opacity="0"
       stroke="#000000"
       stroke-width="0"
       stroke-linecap="square"
       stroke-linejoin="bevel"
       d="m 3598.4898,603.58721 c -9.653,-1.80525 -19.3018,-5.03325 -21.4418,-7.17375 -3.4585,-3.45825 -2.8698,-5.0835 5.298,-14.62575 9.6626,-11.28862 29.6646,-22.24718 51.8528,-28.40888 7.1335,-1.98097 41.286,-6.29954 75.8948,-9.59677 67.4205,-6.4233 73.2615,-8.12828 73.2615,-21.38317 0,-8.24116 -7.9177,-9.83745 -38.769,-7.81568 -16.335,1.07055 -34.1205,4.3617 -50.8882,9.417 -28.605,8.62395 -45.4443,9.9348 -50.4313,3.9258 -2.7662,-3.33308 -0.6294,-5.0898 14.5977,-12.00127 27.9406,-12.68187 57.9451,-17.76687 104.739,-17.75074 22.1138,0.008 43.1258,0.49177 46.692,1.07602 21.7148,3.55695 27.4276,4.73993 32.8583,6.80494 3.3292,1.26555 6.036,3.20535 6.0158,4.3107 -0.044,2.44072 -11.2981,16.5546 -45.0683,56.52233 -33.5805,39.74347 -36.5745,41.00647 -77.319,32.62297 -11.9415,-2.457 -19.146,-2.2965 -37.6132,0.837 -33.8595,5.7465 -69.409,7.0305 -89.6791,3.23925 z m 104.1563,-18.68925 c 18.201,-4.13925 54.858,-23.07083 56.8643,-29.36745 1.281,-4.01827 -15.3091,-3.05565 -65.649,3.8094 -34.9898,4.77165 -42.9653,7.1826 -50.5828,15.2913 -4.9343,5.25225 -5.3881,7.011 -2.6579,10.3005 4.4347,5.34375 38.4649,5.325 62.0254,-0.0337 z" /><path
       id="path423-2"
       fill="#2a186e"
       stroke-opacity="0"
       stroke="#000000"
       stroke-width="0"
       stroke-linecap="square"
       stroke-linejoin="bevel"
       d="m 3857.0102,603.37669 c -15.9574,-4.99425 -17.1046,-6.0675 -13.5612,-12.68925 1.6714,-3.12375 15.6823,-18.61875 31.1352,-34.43325 25.912,-26.51797 33.1335,-37.3938 24.8294,-37.3938 -1.7969,0 -4.8228,-2.49105 -6.7242,-5.53575 -4.1381,-6.62602 -1.5869,-8.99078 12.5852,-11.66573 17.9628,-3.39037 28.8086,-8.7369 46.1523,-22.7499 20.6138,-16.65492 27.6713,-19.77626 44.1593,-19.52891 22.833,0.3426 23.1742,1.93334 4.401,20.53961 -9.2903,9.20783 -16.8915,17.62155 -16.8915,18.6972 0,1.07558 3.4665,1.26218 7.704,0.41475 9.5017,-1.90027 36.3945,1.2348 36.3945,4.24275 0,3.0636 -21.816,9.6921 -38.9108,11.82233 -7.8465,0.97785 -17.769,3.51 -22.0492,5.62695 -7.5885,3.75345 -63.5536,57.267 -63.5536,60.7695 0,2.01975 11.3694,3.88125 38.2621,6.2655 10.3432,0.9165 18.8062,2.619 18.8062,3.783 0,1.164 -4.9605,3.948 -11.0242,6.18675 -24.663,9.105 -71.4613,11.98725 -91.7145,5.64825 z" /><path
       id="path424-2"
       fill="#2a186e"
       stroke-opacity="0"
       stroke="#000000"
       stroke-width="0"
       stroke-linecap="square"
       stroke-linejoin="bevel"
       d="m 4041.5836,604.3589 c -19.7465,-3.11325 -29.717,-6.56775 -37.3759,-12.951 -5.176,-4.314 -5.8502,-6.57 -4.3509,-14.562 2.619,-13.96028 7.4821,-19.85198 28.143,-34.09515 49.326,-34.00463 84.819,-44.71925 148.323,-44.77618 45.5018,-0.0405 72.654,6.9876 77.6895,20.10995 2.904,7.56781 -7.8,20.24753 -24.4845,29.00386 -13.2457,6.95174 -25.4377,8.28765 -96.4837,10.57184 -56.2597,1.80885 -65.102,2.66873 -72.6245,7.06208 -13.053,7.62338 -12.1911,12.1671 3.5962,18.9591 12.2458,5.268 16.4923,5.74275 39.6778,4.4355 14.28,-0.80475 32.9685,-3.363 41.5282,-5.685 17.208,-4.66725 58.1115,-9.01275 59.7585,-6.34875 2.205,3.5685 -40.002,20.49225 -60.7245,24.3495 -27.1132,5.04675 -82.2018,7.15275 -102.6722,3.92625 z m 146.44,-67.34032 c 20.0415,-20.0415 -18.6458,-29.73413 -67.374,-16.87973 -14.1443,3.7311 -33.7927,15.07545 -33.7927,19.51057 0,1.58813 18.1859,2.55721 47.9894,2.55721 44.5305,0 48.363,-0.37388 53.1773,-5.18805 z" /><path
       id="path425-8"
       fill="#2a186e"
       stroke-opacity="0"
       stroke="#000000"
       stroke-width="0"
       stroke-linecap="square"
       stroke-linejoin="bevel"
       d="m 4297.3792,601.88213 c -13.4918,-3.18975 -26.3468,-11.07825 -26.3468,-16.167 0,-5.271 -4.113,-6.1905 -6.064,-1.35525 -0.7196,1.78275 -1.4005,0.54675 -1.5132,-2.74725 -0.1126,-3.29475 0.8785,-5.3205 2.2025,-4.50225 1.324,0.81825 3.2329,-1.15575 4.242,-4.386 3.3803,-10.82318 30.5182,-33.97928 54.4985,-46.50262 34.266,-17.89501 61.2218,-25.20241 103.9673,-28.18441 23.676,-1.65165 40.7857,-1.62143 50.1892,0.0886 7.8465,1.4271 16.6036,2.98185 19.4595,3.45502 7.3118,1.21163 23.8643,9.32956 27.1883,13.33419 3.6345,4.37924 -9.4073,15.70004 -22.1348,19.21432 -10.4865,2.89537 -17.8267,1.1766 -37.4565,-8.7705 -26.3407,-13.3479 -56.07,-11.72655 -92.352,5.03663 -30.1935,13.95037 -62.4578,47.90722 -45.8067,48.20947 2.4968,0.0457 6.8056,1.797 9.5749,3.89175 3.6309,2.74575 12.1163,3.8085 30.4238,3.8085 22.7363,0 28.62,-1.0845 56.316,-10.37625 29.4188,-9.87015 44.1518,-12.30398 53.2785,-8.8017 7.4521,2.85975 4.3335,5.8422 -17.2979,16.54245 -31.2886,15.47775 -60.3308,20.78325 -112.1918,20.49375 -22.8271,-0.1275 -45.4069,-1.15425 -50.1768,-2.2815 z" /><path
       id="path426-9"
       fill="#2a186e"
       stroke-opacity="0"
       stroke="#000000"
       stroke-width="0"
       stroke-linecap="square"
       stroke-linejoin="bevel"
       d="m 4503.8678,605.30927 c -6.8444,-1.1415 -6.9729,-1.44825 -3.4151,-8.1495 6.7772,-12.765 123.7081,-126.73785 137.3724,-133.89744 14.7464,-7.72651 42.1094,-9.56895 44.6287,-3.00495 0.8692,2.2665 -7.0403,11.75836 -20.8335,25.00081 -12.2303,11.74088 -22.236,22.49648 -22.236,23.90123 0,1.49318 1.4655,1.33808 3.5272,-0.37327 4.875,-4.04573 57.5243,-10.67791 84.7665,-10.67791 24.8835,0 37.8256,3.16463 44.6123,10.90905 6.4815,7.39516 3.9427,11.01188 -36.486,51.97598 -40.2645,40.7985 -47.0595,44.73975 -74.1585,43.014 -18.6608,-1.188 -23.5845,-3.669 -15.7545,-7.93875 7.8352,-4.27275 49.4692,-45.522 57.1867,-56.658 3.738,-5.394 6.4013,-11.85847 5.9183,-14.3661 -1.4063,-7.3005 -16.2653,-9.63675 -41.0775,-6.45833 -32.7045,4.18928 -48.3758,12.96818 -84.6975,47.44868 -16.6699,15.82425 -35.0417,30.822 -40.9668,33.44325 -11.9146,5.27025 -27.5313,7.6425 -38.3867,5.83125 z" /><path
       id="path427-7"
       fill="#2a186e"
       stroke-opacity="0"
       stroke="#000000"
       stroke-width="0"
       stroke-linecap="square"
       stroke-linejoin="bevel"
       d="m 4767.6036,601.57013 c -1.0485,-1.6965 16.5973,-21.06225 42.6586,-46.81672 57.3186,-56.64353 71.5603,-64.06478 98.1958,-51.17048 11.061,5.35455 11.6918,5.37817 28.7048,1.07767 26.8815,-6.79485 71.2372,-8.23582 89.559,-2.90947 15.6382,4.54605 19.5495,8.82015 15.7177,17.1741 -4.9042,10.69207 -69.6255,75.9534 -79.9965,80.66415 -10.6267,4.82775 -27.9794,6.1725 -42.4057,3.28725 l -7.9328,-1.58625 30.6743,-29.574 c 30.825,-29.7189 42.1987,-45.52365 36.711,-51.0114 -4.3313,-4.33163 -32.4038,-5.4237 -50.3183,-1.95758 -24.159,4.67438 -45.1477,17.84085 -77.133,48.3864 -15.6743,14.96858 -33.4552,29.46608 -39.5131,32.21558 -12.2945,5.58075 -41.9393,7.04625 -44.9218,2.22075 z" /><path
       id="path428-3"
       fill="#2a186e"
       stroke-opacity="0"
       stroke="#000000"
       stroke-width="0"
       stroke-linecap="square"
       stroke-linejoin="bevel"
       d="m 5018.1122,601.53248 c 0,-1.61175 19.5188,-22.66425 43.3752,-46.7823 50.7715,-51.32903 61.5895,-58.38578 85.0203,-55.4583 8.301,1.03717 14.2762,3.07455 14.2762,4.86817 0,5.43195 -86.3194,89.14643 -97.8214,94.86893 -12.209,6.075 -44.8503,7.89675 -44.8503,2.5035 z" /><path
       id="path429-6"
       fill="#2a186e"
       stroke-opacity="0"
       stroke="#000000"
       stroke-width="0"
       stroke-linecap="square"
       stroke-linejoin="bevel"
       d="m 5145.2196,474.96764 -9.0791,-1.70535 9.0791,-5.76698 c 12.4509,-7.90873 26.2593,-11.29978 42.2457,-10.37451 10.4429,0.60435 13.6733,1.81065 14.3477,5.35785 2.0094,10.56846 -29.6374,17.55224 -56.5934,12.48899 z" /><path
       id="path430-1"
       fill="#2a186e"
       stroke-opacity="0"
       stroke="#000000"
       stroke-width="0"
       stroke-linecap="square"
       stroke-linejoin="bevel"
       d="m 5155.6876,602.51795 c 0.2517,-5.32725 11.2362,-17.0745 68.6498,-73.41638 67.2113,-65.9567 76.3298,-72.63477 98.7436,-72.3155 23.0385,0.3282 24.0802,2.1276 9.783,16.8923 -6.9015,7.1265 -23.4743,23.19165 -36.8288,35.70038 -13.3552,12.50872 -23.7532,23.27145 -23.1067,23.91795 2.454,2.454 44.9992,-7.30463 62.97,-14.44343 29.6932,-11.79555 63.4237,-20.74507 78.186,-20.74507 28.605,0 16.3357,10.12942 -30.0458,24.8058 -39.7927,12.59145 -41.673,13.38945 -41.673,17.67645 0,2.02575 3.5018,10.341 7.782,18.47775 5.169,9.82575 7.782,18.56325 7.782,26.019 v 11.226 l -14.9152,4.3485 c -17.1165,4.98975 -39.1455,3.63825 -43.7708,-2.685 -1.6035,-2.1915 -3.6877,-9.81375 -4.6335,-16.93875 -2.6122,-19.695 -3.3532,-20.673 -15.6637,-20.673 -18.5738,0 -34.2263,6.435 -52.9857,21.78225 -9.7215,7.953 -21.9056,16.2285 -27.0758,18.3885 -9.5481,3.98925 -43.3655,5.541 -43.1974,1.98225 z" /><path
       id="path431-2"
       fill="#2a186e"
       stroke-opacity="0"
       stroke="#000000"
       stroke-width="0"
       stroke-linecap="square"
       stroke-linejoin="bevel"
       d="m -833.97147,580.76423 c -46.05975,-8.60325 -108.7308,-42.0765 -127.1142,-67.893 -21.07186,-29.59275 -25.62043,-94.215 -9.3711,-133.13625 57.5289,-137.7975 253.12605,-279.87825 503.10705,-365.454 181.93725,-62.28255 364.52475,-64.3869 450.55725,-5.192925 169.7775,116.807175 -71.1525,400.208925 -443.15325,521.271675 -136.9725,44.577 -292.79625,65.5755 -374.02575,50.4045 z" /></g><g
     id="layer3"><path
       style="fill:#b80831;fill-opacity:1;stroke-width:0.75"
       d="m 471.72811,592.17734 858.97029,0.0674 11.076,-11.74139 14.476,-17.84825 14.0587,-19.63569 7.9111,-11.95615 7.9137,-13.67646 5.1895,-9.69421 6.1155,-12.93837 4.3591,-10.80196 3.0079,-8.3602 3.1672,-10.33094 2.01,-7.89046 1.6711,-8.05442 1.1097,-7.13443 0.6941,-5.33329 0.4844,-8.3633 0.1398,-6.71349 -0.2525,-5.58781 -0.342,-4.9807 -0.7052,-6.03471 -0.8381,-4.89127 -1.5825,-7.21233 -2.2876,-7.46638 -2.3161,-6.16741 -1.9317,-4.46013 -3.7103,-7.3115 -4.3301,-7.21853 -3.7567,-5.33064 -4.8553,-6.0458 -4.6228,-5.28448 -6.1658,-6.12435 -4.5807,-4.05761 -6.3363,-5.10851 -4.7991,-3.54769 -6.457,-4.35784 -6.9491,-4.21093 -7.5567,-4.02077 -7.6386,-3.78291 -8.6418,-3.88386 -12.5636,-4.7233 -8.3613,-2.7351 -8.1032,-2.46217 -7.845,-2.0257 -7.6859,-1.94537 -9.4508,-1.94381 -8.4365,-1.56659 -6.489,-1.08597 -12.5111,-1.73013 -9.5014,-1.16984 -10.8479,-0.9941 -11.6822,-0.85386 -19.0947,-0.6719 -12.2809,-0.30756 -14.694,0.17442 -27.3413,1.16673 -13.9549,0.9151 -12.1772,1.14211 -20.3524,2.18058 -16.3063,2.21298 -22.5343,3.59606 -14.0284,2.49368 -13.1742,2.57578 -21.6185,4.70133 -13.54792,3.27653 -22.52925,5.87139 -13.27388,3.67129 -16.47712,4.95496 -9.8742,3.10633 -10.8162,3.55657 -17.50673,5.9211 -12.26137,4.42463 -12.0648,4.40909 -13.18845,4.86908 -9.26528,3.64044 -14.70045,5.75934 -12.95572,5.33085 -11.07285,4.58506 -8.67795,3.77536 -9.52245,4.11552 -9.6006,4.33653 -11.45858,5.12515 -8.60737,4.05273 -11.15078,5.35438 -10.2483,4.94653 -8.15338,4.05094 -7.66632,3.87322 -7.95722,4.08024 -8.69459,4.55133 -9.35629,5.04593 -12.62549,6.94116 -10.07412,5.61977 -7.48037,4.3545 -12.66218,7.20164 -17.07376,10.59766 -19.22084,12.18366 -18.66289,12.53545 -10.58418,7.38582 -13.23335,9.58093 -14.41861,10.74358 -16.25221,12.77646 -16.44395,13.82833 -11.93481,10.29202 -13.41096,12.2596 -8.18385,8.11324 -8.11386,8.24817 -9.7893,9.90509 -7.1944,7.87349 z"
       id="path433" /></g></svg>
