<?xml version="1.0" encoding="UTF-8" standalone="no"?>
<svg
   width="1019.0179pt"
   height="619.70544pt"
   viewBox="0 0 1019.0179 619.70544"
   version="1.1"
   id="svg1"
   xml:space="preserve"
   sodipodi:docname="favi.svg"
   inkscape:version="1.3.2 (091e20ef0f, 2023-11-25)"
   inkscape:export-filename="favi.png"
   inkscape:export-xdpi="182.43448"
   inkscape:export-ydpi="182.43448"
   xmlns:inkscape="http://www.inkscape.org/namespaces/inkscape"
   xmlns:sodipodi="http://sodipodi.sourceforge.net/DTD/sodipodi-0.dtd"
   xmlns="http://www.w3.org/2000/svg"
   xmlns:svg="http://www.w3.org/2000/svg"><sodipodi:namedview
     id="namedview1"
     pagecolor="#ffffff"
     bordercolor="#000000"
     borderopacity="0.25"
     inkscape:showpageshadow="2"
     inkscape:pageopacity="0.0"
     inkscape:pagecheckerboard="0"
     inkscape:deskcolor="#d1d1d1"
     inkscape:document-units="pt"
     inkscape:zoom="0.19427636"
     inkscape:cx="4825.5999"
     inkscape:cy="787.53791"
     inkscape:window-width="2560"
     inkscape:window-height="1336"
     inkscape:window-x="0"
     inkscape:window-y="0"
     inkscape:window-maximized="1"
     inkscape:current-layer="svg1" /><defs
     id="defs1" /><g
     id="layer2"
     style="display:inline"
     transform="translate(980.24996,34.045632)"><path
       id="path431-2"
       fill="#2a186e"
       stroke-opacity="0"
       stroke="#000000"
       stroke-width="0"
       stroke-linecap="square"
       stroke-linejoin="bevel"
       d="m -833.97147,580.76423 c -46.05975,-8.60325 -108.7308,-42.0765 -127.1142,-67.893 -21.07186,-29.59275 -25.62043,-94.215 -9.3711,-133.13625 57.5289,-137.7975 253.12605,-279.87825 503.10705,-365.454 181.93725,-62.28255 364.52475,-64.3869 450.55725,-5.192925 169.7775,116.807175 -71.1525,400.208925 -443.15325,521.271675 -136.9725,44.577 -292.79625,65.5755 -374.02575,50.4045 z" /></g><g
     id="layer3"
     transform="translate(-395.06434,-280.47018)"><path
       style="fill:#b80831;fill-opacity:1;stroke-width:0.75"
       d="m 471.72811,592.17734 858.97029,0.0674 11.076,-11.74139 14.476,-17.84825 14.0587,-19.63569 7.9111,-11.95615 7.9137,-13.67646 5.1895,-9.69421 6.1155,-12.93837 4.3591,-10.80196 3.0079,-8.3602 3.1672,-10.33094 2.01,-7.89046 1.6711,-8.05442 1.1097,-7.13443 0.6941,-5.33329 0.4844,-8.3633 0.1398,-6.71349 -0.2525,-5.58781 -0.342,-4.9807 -0.7052,-6.03471 -0.8381,-4.89127 -1.5825,-7.21233 -2.2876,-7.46638 -2.3161,-6.16741 -1.9317,-4.46013 -3.7103,-7.3115 -4.3301,-7.21853 -3.7567,-5.33064 -4.8553,-6.0458 -4.6228,-5.28448 -6.1658,-6.12435 -4.5807,-4.05761 -6.3363,-5.10851 -4.7991,-3.54769 -6.457,-4.35784 -6.9491,-4.21093 -7.5567,-4.02077 -7.6386,-3.78291 -8.6418,-3.88386 -12.5636,-4.7233 -8.3613,-2.7351 -8.1032,-2.46217 -7.845,-2.0257 -7.6859,-1.94537 -9.4508,-1.94381 -8.4365,-1.56659 -6.489,-1.08597 -12.5111,-1.73013 -9.5014,-1.16984 -10.8479,-0.9941 -11.6822,-0.85386 -19.0947,-0.6719 -12.2809,-0.30756 -14.694,0.17442 -27.3413,1.16673 -13.9549,0.9151 -12.1772,1.14211 -20.3524,2.18058 -16.3063,2.21298 -22.5343,3.59606 -14.0284,2.49368 -13.1742,2.57578 -21.6185,4.70133 -13.54792,3.27653 -22.52925,5.87139 -13.27388,3.67129 -16.47712,4.95496 -9.8742,3.10633 -10.8162,3.55657 -17.50673,5.9211 -12.26137,4.42463 -12.0648,4.40909 -13.18845,4.86908 -9.26528,3.64044 -14.70045,5.75934 -12.95572,5.33085 -11.07285,4.58506 -8.67795,3.77536 -9.52245,4.11552 -9.6006,4.33653 -11.45858,5.12515 -8.60737,4.05273 -11.15078,5.35438 -10.2483,4.94653 -8.15338,4.05094 -7.66632,3.87322 -7.95722,4.08024 -8.69459,4.55133 -9.35629,5.04593 -12.62549,6.94116 -10.07412,5.61977 -7.48037,4.3545 -12.66218,7.20164 -17.07376,10.59766 -19.22084,12.18366 -18.66289,12.53545 -10.58418,7.38582 -13.23335,9.58093 -14.41861,10.74358 -16.25221,12.77646 -16.44395,13.82833 -11.93481,10.29202 -13.41096,12.2596 -8.18385,8.11324 -8.11386,8.24817 -9.7893,9.90509 -7.1944,7.87349 z"
       id="path433" /></g></svg>
