<?xml version="1.0" encoding="UTF-8" standalone="no"?>
<!-- Created with Inkscape (http://www.inkscape.org/) -->
<svg
   xmlns:svg="http://www.w3.org/2000/svg"
   xmlns="http://www.w3.org/2000/svg"
   version="1.0"
   width="800"
   height="400"
   id="svg2">
  <defs
     id="defs4" />
  <g
     id="layer1">
    <path
       d="M 439.90538,63.423174 C 434.84541,63.423174 430.75665,67.511917 430.75666,72.571891 C 430.75666,77.631866 434.84541,81.745674 439.90538,81.745674 C 444.96536,81.745674 449.07917,77.631866 449.07916,72.571891 C 449.07916,67.511917 444.96536,63.423174 439.90538,63.423174 z M 503.5203,63.423174 C 498.46032,63.423174 494.3465,67.511917 494.34651,72.571891 C 494.34651,77.631866 498.46032,81.745674 503.5203,81.745674 C 508.58027,81.745674 512.66899,77.631866 512.669,72.571891 C 512.669,67.511917 508.58028,63.423174 503.5203,63.423174 z M 328.7422,68.586559 L 328.7422,166.36503 L 354.33354,166.36503 L 354.33354,122.50132 L 385.26373,166.36503 L 417.54742,166.36503 L 379.42359,116.28522 L 414.48949,68.586559 L 384.36139,68.586559 L 354.33354,113.0017 L 354.33354,68.586559 L 328.7422,68.586559 z M 454.49319,68.586559 L 421.75833,166.36503 L 447.50007,166.36503 L 452.41281,148.86968 L 489.15807,148.86968 L 493.97054,166.36503 L 519.68721,166.36503 L 486.90221,68.586559 L 454.49319,68.586559 z M 528.83591,68.586559 L 528.83591,166.36503 L 586.83629,166.36503 L 586.83629,143.53084 L 554.70298,143.53084 L 554.70298,68.586559 L 528.83591,68.586559 z M 581.64783,68.586559 L 581.64783,91.696466 L 602.90294,91.696466 L 602.90294,166.36503 L 628.76999,166.36503 L 628.76999,91.696466 L 650.02508,91.696466 L 650.02508,68.586559 L 581.64783,68.586559 z M 659.42445,68.586559 L 659.42445,166.36503 L 717.55013,166.36503 L 717.55013,144.45825 L 684.61477,144.45825 L 684.61477,127.96549 L 715.67026,127.96549 L 715.67026,107.01117 L 684.61477,107.01117 L 684.61477,90.04218 L 717.55013,90.04218 L 717.55013,68.586559 L 659.42445,68.586559 z M 470.83556,84.427626 C 471.6565,87.856132 472.32219,90.667806 472.84076,92.849462 C 473.35922,95.031258 473.76643,96.607253 474.06894,97.586739 L 483.71896,129.84537 L 458.00229,129.84537 L 467.52698,97.586739 C 468.08867,95.583178 468.6411,93.477226 469.18128,91.29543 C 469.72135,89.113781 470.2738,86.832057 470.83556,84.427626 z M 328.26597,183.2087 L 328.26597,280.96211 L 353.85731,280.96211 L 353.85731,237.09841 L 384.7875,280.96211 L 417.04612,280.96211 L 378.94736,230.88229 L 414.01325,183.2087 L 383.86008,183.2087 L 353.85731,227.59877 L 353.85731,183.2087 L 328.26597,183.2087 z M 425.24236,183.2087 L 425.24236,280.96211 L 483.24273,280.96211 L 483.24273,258.12792 L 451.10943,258.12792 L 451.10943,183.2087 L 425.24236,183.2087 z M 491.08806,183.2087 L 491.08806,280.96211 L 517.20577,280.96211 L 517.20577,183.2087 L 491.08806,183.2087 z M 547.15842,183.2087 L 532.52047,280.96211 L 556.55779,280.96211 L 562.14727,238.70256 C 562.62255,235.09608 563.02976,231.47826 563.37546,227.84942 C 563.72111,224.2207 564.01851,220.54155 564.27781,216.84591 C 564.83949,220.94226 566.02218,226.09701 567.83702,232.28592 C 568.18267,233.5772 568.44115,234.54511 568.61404,235.1684 L 581.5225,280.96211 L 598.76721,280.96211 L 611.65061,235.1684 C 611.82337,234.5451 612.11386,233.5772 612.50282,232.28592 C 614.27433,226.09701 615.45703,220.93666 616.06204,216.79577 C 616.32122,221.11476 616.61513,225.10077 616.93931,228.75176 C 617.2633,232.40287 617.62813,235.71942 618.01711,238.70256 L 623.58153,280.96211 L 647.74417,280.96211 L 633.18142,183.2087 L 607.51488,183.2087 L 593.05239,233.48905 C 592.23135,236.47227 591.57258,239.01896 591.09732,241.13386 C 590.62194,243.24883 590.31762,245.18743 590.14486,246.92387 C 589.79911,243.7181 588.95275,239.86599 587.61329,235.36892 C 587.35398,234.56751 587.17329,233.97062 587.08693,233.61437 L 572.77482,183.2087 L 547.15842,183.2087 z M 689.00113,183.2087 L 656.26627,280.96211 L 681.98293,280.96211 L 686.92073,263.46676 L 723.66599,263.46676 L 728.45341,280.96211 L 754.19513,280.96211 L 721.38508,183.2087 L 689.00113,183.2087 z M 705.31843,199.0247 C 706.13937,202.45321 706.80505,205.26488 707.32363,207.44653 C 707.84209,209.62834 708.24929,211.20432 708.55181,212.18382 L 718.22689,244.44243 L 692.48516,244.44243 L 702.00985,212.18382 C 702.57153,210.18025 703.12398,208.0743 703.66414,205.8925 C 704.20422,203.71086 704.75667,201.42913 705.31843,199.0247 z"
       id="text3979"
       style="font-size:167.9949646px;font-style:normal;font-variant:normal;font-weight:bold;font-stretch:normal;text-align:start;line-height:100%;writing-mode:lr-tb;text-anchor:start;fill:#000000;fill-opacity:1;stroke:none;stroke-width:1px;stroke-linecap:butt;stroke-linejoin:miter;stroke-opacity:1;font-family:Futura Md BT;-inkscape-font-specification:Futura Md BT Bold" />
    <path
       d="M 174.78359,310.67542 L 210.43652,310.67542 L 210.43652,318.73653 L 184.55012,318.73653 L 184.55012,333.07529 L 206.79387,333.07529 L 206.79387,341.13405 L 184.55012,341.13405 L 184.55012,366.01517 L 174.78359,366.01517 L 174.78359,310.67542 z M 231.4341,345.47447 L 247.63439,345.47447 L 239.80508,322.92084 L 239.65133,322.92084 L 231.4341,345.47447 z M 234.84493,310.67542 L 244.76758,310.67542 L 266.08177,366.01517 L 255.22952,366.01517 L 250.6573,353.53558 L 228.33549,353.53558 L 223.52909,366.01517 L 212.67923,366.01517 L 234.84493,310.67542 z M 306.31492,327.72723 C 305.17794,324.2644 303.42087,321.65464 301.04375,319.89793 C 298.66652,318.1413 295.85057,317.28898 292.59589,317.34098 C 290.52855,317.34103 288.46122,317.7932 286.39393,318.6975 C 284.3266,319.60191 282.46626,320.94542 280.81289,322.72807 C 279.1595,324.51079 277.81637,326.70662 276.78351,329.31557 C 275.75063,331.92459 275.2342,334.9345 275.23421,338.3453 C 275.2342,341.65209 275.76364,344.61034 276.82255,347.22009 C 277.88142,349.82987 279.26358,352.0261 280.969,353.80878 C 282.6744,355.59147 284.62503,356.96061 286.82088,357.91621 C 289.01669,358.87182 291.25156,359.34962 293.52547,359.34961 C 297.556,359.34962 300.61755,358.30334 302.71013,356.21079 C 304.80264,354.11825 306.39135,351.08273 307.47631,347.10419 L 317.70645,347.10419 C 317.24279,350.15236 316.28759,352.94228 314.84083,355.47399 C 313.39398,358.0057 311.58526,360.17591 309.41472,361.98462 C 307.24407,363.79332 304.78963,365.20149 302.05138,366.20912 C 299.31306,367.21676 296.44506,367.72059 293.44741,367.7206 C 289.36479,367.72059 285.57983,366.98417 282.09254,365.51136 C 278.60522,364.03853 275.56968,362.01025 272.98595,359.42648 C 270.40219,356.84274 268.37389,353.75558 266.90108,350.16495 C 265.42825,346.57437 264.69184,342.63449 264.69185,338.3453 C 264.69184,334.10819 265.42825,330.18093 266.90108,326.56349 C 268.37389,322.94612 270.40219,319.84593 272.98595,317.26292 C 275.56968,314.68001 278.60522,312.65212 282.09254,311.17924 C 285.57983,309.70648 289.36479,308.97005 293.44741,308.97 C 296.23849,308.97005 298.8999,309.42224 301.43166,310.32653 C 303.96332,311.23095 306.24943,312.49679 308.28999,314.1241 C 310.33045,315.75152 312.07412,317.72775 313.52097,320.05285 C 314.96772,322.37804 316.05302,324.93615 316.77688,327.72723 L 306.31492,327.72723 z M 324.12475,310.67542 L 333.88891,310.67542 L 333.88891,333.07529 L 359.31171,333.07529 L 359.31171,310.67542 L 369.07824,310.67542 L 369.07824,366.01517 L 359.31171,366.01517 L 359.31171,341.13405 L 333.88891,341.13405 L 333.88891,366.01517 L 324.12475,366.01517 L 324.12475,310.67542 z M 389.01452,332.76544 L 401.10382,332.76544 C 404.20398,332.76547 406.49048,332.14536 407.96334,330.90508 C 409.43614,329.6649 410.19856,327.93386 410.25064,325.71195 C 410.30265,323.33403 409.68253,321.57697 408.39028,320.44077 C 407.09799,319.30467 404.90176,318.73659 401.8016,318.73653 L 389.01452,318.73653 L 389.01452,332.76544 z M 402.18951,357.95405 C 406.168,357.95406 408.94532,357.20504 410.52146,355.70697 C 412.09755,354.20892 412.8856,352.11638 412.88564,349.42934 C 412.8856,346.58619 412.0459,344.44122 410.36654,342.99439 C 408.6871,341.54761 406.27129,340.82421 403.1191,340.82419 L 389.01452,340.82419 L 389.01452,357.95405 L 402.18951,357.95405 z M 379.24797,310.67542 L 403.35327,310.67542 C 405.88417,310.67547 408.18329,310.90767 410.25064,311.37202 C 412.31792,311.83647 414.07497,312.5855 415.52182,313.6191 C 416.96859,314.65281 418.07952,315.98372 418.8546,317.61182 C 419.6296,319.24001 420.01713,321.24227 420.01717,323.61863 C 420.01713,326.20163 419.64222,328.29417 418.89245,329.89627 C 418.14259,331.49843 417.25124,332.75166 416.21842,333.65599 C 415.1855,334.56037 414.11361,335.18049 413.00272,335.51633 C 411.89176,335.85225 411.00041,336.07144 410.3287,336.17391 L 410.3287,336.33002 C 414.3592,336.74319 417.55007,338.19 419.90128,340.67044 C 422.25238,343.15092 423.42796,346.613 423.42801,351.05669 C 423.42796,353.22653 423.02743,355.22878 422.22642,357.0635 C 421.4253,358.89823 420.31397,360.47435 418.89245,361.79183 C 417.47084,363.10934 415.75279,364.1426 413.73835,364.89162 C 411.72382,365.64066 409.50157,366.01517 407.07161,366.01517 L 379.24797,366.01517 L 379.24797,310.67542 z M 434.1103,366.01517 L 434.1103,310.67542 L 469.76323,310.67542 L 469.76323,318.73653 L 443.87683,318.73653 L 443.87683,333.07529 L 466.1206,333.07529 L 466.1206,341.13405 L 443.87683,341.13405 L 443.87683,357.95405 L 470.30491,357.95405 L 470.30491,366.01517 L 434.1103,366.01517 z M 478.70608,310.67542 L 519.24346,310.67542 L 519.24346,319.04639 L 503.819,319.04639 L 503.819,366.01517 L 494.05483,366.01517 L 494.05483,319.04639 L 478.70608,319.04639 L 478.70608,310.67542 z M 539.18388,334.6246 L 549.80196,334.6246 C 553.26322,334.62463 555.85958,333.95287 557.59104,332.60933 C 559.32245,331.26583 560.18818,329.43111 560.18821,327.10515 C 560.18818,324.57426 559.3741,322.65005 557.74598,321.33252 C 556.1178,320.01506 554.06349,319.3563 551.58305,319.35626 L 539.18388,319.35626 L 539.18388,334.6246 z M 529.41736,366.01517 L 529.41736,310.67542 L 553.9082,310.67542 C 556.28613,310.67547 558.49538,310.94671 560.53591,311.4891 C 562.57639,312.03161 564.32004,312.89693 565.76688,314.08507 C 567.21365,315.27332 568.3506,316.81039 569.17773,318.69632 C 570.00475,320.58234 570.41831,322.86885 570.41835,325.55585 C 570.41831,327.62319 570.13407,329.39327 569.56565,330.86606 C 568.99711,332.33892 568.20907,333.57915 567.20147,334.58675 C 566.19379,335.59442 564.97957,336.40811 563.55883,337.02779 C 562.138,337.64753 560.5753,338.11274 558.87071,338.42334 L 558.87071,338.57709 C 562.64262,338.73166 565.34226,339.79094 566.96966,341.75495 C 568.59698,343.71901 569.41067,346.4837 569.41071,350.04906 L 569.41071,358.49808 C 569.41067,360.09865 569.65627,361.4804 570.14752,362.64336 C 570.63867,363.80633 571.42673,364.93026 572.51169,366.01517 L 560.57375,366.01517 C 559.74744,364.82619 559.30866,363.54733 559.25744,362.17857 C 559.20616,360.80983 559.18052,359.66027 559.18057,358.7299 L 559.18057,351.59836 C 559.18052,349.58309 559.10287,348.00699 558.94758,346.87002 C 558.79222,345.7331 558.39168,344.88078 557.74598,344.31307 C 557.1002,343.74542 556.1312,343.38391 554.83897,343.22856 C 553.54666,343.07326 551.78961,342.9956 549.56778,342.99558 L 539.18388,342.99558 L 539.18388,366.01517 L 529.41736,366.01517 z M 580.95017,366.01517 L 580.95017,310.67542 L 590.71671,310.67542 L 590.71671,366.01517 L 580.95017,366.01517 z M 604.41357,366.01517 L 604.41357,310.67542 L 640.06649,310.67542 L 640.06649,318.73653 L 614.18009,318.73653 L 614.18009,333.07529 L 636.42385,333.07529 L 636.42385,341.13405 L 614.18009,341.13405 L 614.18009,357.95405 L 640.60815,357.95405 L 640.60815,366.01517 L 604.41357,366.01517 z M 662.73762,332.76544 L 674.82692,332.76544 C 677.92708,332.76547 680.21358,332.14536 681.68644,330.90508 C 683.15923,329.6649 683.92166,327.93386 683.97373,325.71195 C 684.02573,323.33403 683.40561,321.57697 682.11338,320.44077 C 680.82109,319.30467 678.62486,318.73659 675.5247,318.73653 L 662.73762,318.73653 L 662.73762,332.76544 z M 675.91262,357.95405 C 679.89111,357.95406 682.66842,357.20504 684.24457,355.70697 C 685.82063,354.20892 686.60869,352.11638 686.60873,349.42934 C 686.60869,346.58619 685.76899,344.44122 684.08963,342.99439 C 682.4102,341.54761 679.99439,340.82421 676.8422,340.82419 L 662.73762,340.82419 L 662.73762,357.95405 L 675.91262,357.95405 z M 652.97108,310.67542 L 677.07636,310.67542 C 679.60727,310.67547 681.90638,310.90767 683.97373,311.37202 C 686.041,311.83647 687.79807,312.5855 689.24491,313.6191 C 690.69167,314.65281 691.80261,315.98372 692.57769,317.61182 C 693.3527,319.24001 693.74023,321.24227 693.74026,323.61863 C 693.74023,326.20163 693.36531,328.29417 692.61555,329.89627 C 691.86569,331.49843 690.97434,332.75166 689.9415,333.65599 C 688.9086,334.56037 687.83671,335.18049 686.72582,335.51633 C 685.61486,335.85225 684.72351,336.07144 684.05179,336.17391 L 684.05179,336.33002 C 688.0823,336.74319 691.27316,338.19 693.62436,340.67044 C 695.97547,343.15092 697.15105,346.613 697.1511,351.05669 C 697.15105,353.22653 696.75052,355.22878 695.9495,357.0635 C 695.14839,358.89823 694.03707,360.47435 692.61555,361.79183 C 691.19393,363.10934 689.4759,364.1426 687.46144,364.89162 C 685.44692,365.64066 683.22467,366.01517 680.79471,366.01517 L 652.97108,366.01517 L 652.97108,310.67542 z"
       id="text3987"
       style="font-size:96.63361359px;font-style:normal;font-variant:normal;font-weight:normal;font-stretch:normal;text-align:start;line-height:100%;writing-mode:lr-tb;text-anchor:start;fill:#000000;fill-opacity:1;stroke:none;stroke-width:1px;stroke-linecap:butt;stroke-linejoin:miter;stroke-opacity:1;font-family:Folio LT Medium;-inkscape-font-specification:'Folio LT Medium,'" />
    <path
       d="M 172.26154,41.115344 C 105.86748,41.115342 50.66958,92.108554 43.928859,156.81528 L 76.237613,175.61402 L 103.75895,162.70556 C 103.75877,162.70921 240.91977,164.99344 240.91451,164.98647 L 301.17073,164.98647 C 298.43639,96.449658 241.43018,41.115344 172.26154,41.115344 z"
       id="path4011"
       style="opacity:1;fill:#2f805f;fill-opacity:1;fill-rule:evenodd;stroke:none;stroke-width:52.20053101;stroke-linecap:square;stroke-linejoin:miter;stroke-miterlimit:4;stroke-dasharray:none;stroke-dashoffset:0;stroke-opacity:1" />
    <path
       d="M 267.55859,165.78854 L 240.61373,178.44636 C 240.78146,178.21959 103.68013,176.5184 103.63364,176.41609 L 43.377429,176.41609 C 46.677893,244.43962 103.46565,299.15929 172.26154,299.15929 C 238.14885,299.1593 292.99762,248.94094 300.41878,184.93819 L 267.55859,165.78854 z"
       id="path3997"
       style="opacity:1;fill:#e5482f;fill-opacity:1;fill-rule:evenodd;stroke:none;stroke-width:52.20053101;stroke-linecap:square;stroke-linejoin:miter;stroke-miterlimit:4;stroke-dasharray:none;stroke-dashoffset:0;stroke-opacity:1" />
    <path
       d="M 101.01526,126.22825 C 101.01526,173.64906 62.573099,212.09122 15.15229,212.09122 C -32.268519,212.09122 -70.710681,173.64906 -70.71068,126.22825 C -70.710681,78.807441 -32.268519,40.365279 15.15229,40.365279 C 62.573099,40.365279 101.01526,78.807441 101.01526,126.22825 z"
       transform="matrix(0.8020793,0,0,0.8020793,160.09689,68.904261)"
       id="path3995"
       style="opacity:1;fill:#3387d4;fill-opacity:1;fill-rule:evenodd;stroke:none;stroke-width:4;stroke-linecap:square;stroke-linejoin:miter;stroke-miterlimit:4;stroke-dasharray:none;stroke-dashoffset:0;stroke-opacity:1" />
    <path
       d="M 167.44907,111.4978 L 167.44907,158.54476 L 157.42308,148.51878 L 157.42308,125.98536 L 147.79813,125.98536 L 147.79813,138.89382 L 134.18784,125.28354 L 127.37017,132.07615 L 140.98045,145.68644 L 127.69602,145.68644 L 127.69602,155.31138 L 150.60541,155.31138 L 160.63139,165.33738 L 113.6095,165.33738 L 113.6095,174.96233 L 160.98231,174.96233 L 149.90358,186.01598 L 127.37017,186.01598 L 127.37017,195.64092 L 140.27863,195.64092 L 126.66834,209.25121 L 133.46096,216.06889 L 147.07124,202.4586 L 147.07124,215.74304 L 156.6962,215.74304 L 156.6962,192.83365 L 167.44907,182.08078 L 167.44907,228.77683 L 177.07402,228.77683 L 177.07402,181.78 L 189.1804,193.88638 L 189.1804,217.22188 L 198.80536,217.22188 L 198.80536,203.51133 L 210.31019,215.01615 L 217.12785,208.22355 L 206.42511,197.52081 L 218.90747,197.52081 L 218.90747,187.89585 L 196.80016,187.89585 L 183.84156,174.96233 L 230.88853,174.96233 L 230.88853,165.33738 L 184.19248,165.33738 L 195.27119,154.25866 L 218.60669,154.25866 L 218.60669,144.6337 L 204.89614,144.6337 L 216.40097,133.12888 L 209.60836,126.3112 L 198.90562,137.01395 L 198.90562,124.53159 L 189.28066,124.53159 L 189.28066,146.63891 L 177.07402,158.84554 L 177.07402,111.4978 L 167.44907,111.4978 z"
       id="path4013"
       style="fill:#ffffff;fill-opacity:1;fill-rule:evenodd;stroke:none;stroke-width:12;stroke-linecap:butt;stroke-linejoin:miter;stroke-miterlimit:4;stroke-dasharray:none;stroke-opacity:1" />
  </g>
</svg>
